<svg xmlns="http://www.w3.org/2000/svg" stroke="#000" viewBox="0 0 486.8 486.8"><path d="M80 370.4a7 7 0 0 0-9.5-2.5L53.1 378v-20a7 7 0 0 0-13.8 0v20l-17.4-10c-3.3-2-7.6-.9-9.5 2.4s-.8 7.6 2.5 9.5l17.5 10.2-17.5 10.2c-3.3 2-4.4 6.2-2.5 9.5s6.2 4.4 9.5 2.5l17.4-10v20a7 7 0 0 0 13.8 0v-20l17.4 10c3.3 2 7.6.8 9.5-2.5s.8-7.6-2.5-9.5L60 390.1 77.5 380a7 7 0 0 0 2.5-9.5zm63.9 39.3a7 7 0 0 0 9.5 2.5l17.4-10v20a7 7 0 0 0 13.8 0v-20l17.4 10c3.3 2 7.6.8 9.5-2.5s.8-7.6-2.5-9.5L191.5 390l17.5-10.2c3.3-1.9 4.4-6.2 2.5-9.5s-6.2-4.4-9.5-2.5L184.6 378v-20a7 7 0 0 0-13.8 0v20l-17.4-10c-3.3-1.9-7.6-.8-9.5 2.5s-.8 7.6 2.5 9.5l17.5 10.2-17.5 10.1a7 7 0 0 0-2.5 9.5zm-12.4 52.4v12.2a5.3 5.3 0 0 0 5.3 5.3h81.9a5.3 5.3 0 0 0 5.3-5.3v-12.2a5.3 5.3 0 0 0-5.3-5.3h-81.9a5.3 5.3 0 0 0-5.3 5.3zm199.6-341h-.6V94c0-47.3-38.7-87.5-85.9-86.7a84.7 84.7 0 0 0-83.1 84.5v2.6a7.1 7.1 0 0 0 7.1 7.1h22.7a7.1 7.1 0 0 0 7.1-7v-.9a48.8 48.8 0 0 1 44.5-49.3 47.6 47.6 0 0 1 50.6 47.4V121h-70v.1h-64.7a22.3 22.3 0 0 0-21.7 22.2v123c0 12.3 10 22.3 22.3 22.3H331c12.3 0 22.3-10 22.3-22.3V143.4a22.2 22.2 0 0 0-22.2-22.3zm-72.6 89.3c-1.7 1.2-2.2 2.5-2.2 4.5V242a9.5 9.5 0 0 1-5.1 9.1c-7.9 4-15.8-1.6-15.8-9v-27.3c0-1.8-.4-3-2-4.3a21 21 0 1 1 33.4-17.1 19 19 0 0 1-8.3 17zm4.4 251.7v12.2a5.3 5.3 0 0 0 5.3 5.3h81.9a5.3 5.3 0 0 0 5.3-5.3v-12.2a5.3 5.3 0 0 0-5.3-5.3h-81.9a5.3 5.3 0 0 0-5.3 5.3zm12.4-52.4a7 7 0 0 0 9.5 2.5l17.4-10v20a7 7 0 0 0 13.8 0v-20l17.4 10c3.3 2 7.6.8 9.5-2.5s.8-7.6-2.5-9.5L322.9 390l17.5-10.2c3.3-1.9 4.4-6.2 2.5-9.5s-6.2-4.4-9.5-2.5L316 378v-20a7 7 0 0 0-13.8 0v20l-17.4-10c-3.3-2-7.6-.9-9.5 2.4s-.8 7.6 2.5 9.5l17.5 10.2-17.5 10.2a7 7 0 0 0-2.5 9.5zm206.2 47.1h-81.9a5.3 5.3 0 0 0-5.3 5.3v12.2a5.3 5.3 0 0 0 5.3 5.3h81.9a5.3 5.3 0 0 0 5.3-5.3v-12.2a5.3 5.3 0 0 0-5.3-5.3zM5.3 479.6h81.9a5.3 5.3 0 0 0 5.3-5.3v-12.2a5.3 5.3 0 0 0-5.3-5.3H5.3a5.3 5.3 0 0 0-5.3 5.3v12.2a5.3 5.3 0 0 0 5.3 5.3zm401.5-69.9a7 7 0 0 0 9.5 2.5l17.4-10v20a7 7 0 0 0 13.8 0v-20l17.4 10c3.3 2 7.6.8 9.5-2.5s.8-7.6-2.5-9.5L454.4 390l17.5-10.2c3.3-1.9 4.4-6.2 2.5-9.5s-6.2-4.4-9.5-2.5L447.5 378v-20a7 7 0 0 0-13.8 0v20l-17.4-10c-3.3-2-7.6-.9-9.5 2.4s-.8 7.6 2.5 9.5l17.5 10.2-17.5 10.2a6.9 6.9 0 0 0-2.5 9.5z"/></svg>