<svg xmlns="http://www.w3.org/2000/svg" stroke="#000" viewBox="0 0 487 487"><path d="M80 370a7 7 0 0 0-9-2l-18 10v-20a7 7 0 0 0-14 0v20l-17-10c-3-2-8-1-10 2s0 8 3 10l17 10-17 10c-3 2-5 6-3 10s7 4 10 2l17-10v20a7 7 0 0 0 14 0v-20l17 10c4 2 8 1 10-2s1-8-2-10l-18-10 18-10a7 7 0 0 0 2-9zm64 40a7 7 0 0 0 9 2l18-10v20a7 7 0 0 0 14 0v-20l17 10c3 2 8 1 10-2s0-8-3-10l-17-10 17-10c3-2 4-6 3-10s-7-4-10-2l-17 10v-20a7 7 0 0 0-14 0v20l-18-10c-3-2-7-1-9 3s-1 7 2 9l18 10-18 10a7 7 0 0 0-2 10zm-12 52v12a5 5 0 0 0 5 6h82a5 5 0 0 0 5-6v-12a5 5 0 0 0-5-5h-82a5 5 0 0 0-5 5zm199-341V94c0-47-39-87-86-87a85 85 0 0 0-83 85v2a7 7 0 0 0 7 7h22a7 7 0 0 0 7-7 49 49 0 0 1 45-50 48 48 0 0 1 50 48v29H160a22 22 0 0 0-22 22v123c0 13 10 23 22 23h172c12 0 22-10 22-23V143a22 22 0 0 0-22-22zm-72 89c-2 2-3 3-3 5v27a10 10 0 0 1-5 9c-8 4-16-2-16-9v-27c0-2 0-3-2-5a21 21 0 1 1 34-17 19 19 0 0 1-8 17zm4 252v12a5 5 0 0 0 5 6h82a5 5 0 0 0 5-6v-12a5 5 0 0 0-5-5h-82a5 5 0 0 0-5 5zm12-52a7 7 0 0 0 10 2l17-10v20a7 7 0 0 0 14 0v-20l17 10c4 2 8 1 10-2s1-8-3-10l-17-10 17-10c4-2 5-6 3-10s-6-4-10-2l-17 10v-20a7 7 0 0 0-14 0v20l-17-10c-3-2-8-1-10 2s0 8 3 10l17 10-17 10a7 7 0 0 0-3 10zm206 47h-81a5 5 0 0 0-6 5v12a5 5 0 0 0 6 6h81a5 5 0 0 0 6-6v-12a5 5 0 0 0-6-5zM5 480h82a5 5 0 0 0 6-6v-12a5 5 0 0 0-6-5H5a5 5 0 0 0-5 5v12a5 5 0 0 0 5 6zm402-70a7 7 0 0 0 9 2l18-10v20a7 7 0 0 0 13 0v-20l18 10c3 2 7 1 9-2s1-8-2-10l-18-10 18-10c3-2 4-6 2-10s-6-4-9-2l-17 10v-20a7 7 0 0 0-14 0v20l-18-10c-3-2-7-1-9 2s-1 8 2 10l18 10-18 10a7 7 0 0 0-2 10z"/></svg>