<svg xmlns="http://www.w3.org/2000/svg" viewBox="0 0 465 465"><path d="M411 252H138a54 54 0 0 0 0 109h273a54 54 0 0 0 0-109zm0 94H138a39 39 0 0 1 0-79h273a39 39 0 0 1 0 79z"/><path d="M176 292c-2-3-7-4-10-2l-8 4v-9a7 7 0 1 0-15 0v9l-8-4a7 7 0 1 0-8 13l8 4-8 5a7 7 0 0 0 8 13l8-5v9a7 7 0 1 0 15 0v-9l8 5a7 7 0 0 0 10-3c2-3 1-8-3-10l-8-5 8-4c4-2 5-7 3-11zm70 0c-2-3-7-4-11-2l-8 4v-9a7 7 0 1 0-15 0v9l-8-4a7 7 0 1 0-7 13l8 4-8 5a7 7 0 0 0 7 13l8-5v9a7 7 0 1 0 15 0v-9l8 5a7 7 0 0 0 11-3c2-3 1-8-3-10l-8-5 8-4c4-2 5-7 3-11zm69 0c-2-3-6-4-10-2l-8 4v-9a7 7 0 1 0-15 0v9l-8-4a7 7 0 1 0-7 13l8 4-8 5a7 7 0 0 0 7 13l8-5v9a7 7 0 1 0 15 0v-9l8 5a7 7 0 0 0 10-3c3-3 1-8-2-10l-8-5 8-4c3-2 5-7 2-11zm70 0c-2-3-6-4-10-2l-8 4v-9a7 7 0 1 0-15 0v9l-8-4a7 7 0 1 0-8 13l8 4-8 5a7 7 0 0 0 8 13l8-5v9a7 7 0 1 0 15 0v-9l8 5a7 7 0 0 0 10-3c2-3 1-8-2-10l-9-5 9-4c3-2 4-7 2-11zm-326 0h-1v-6a25 25 0 0 0-50 0v6c-4 0-7 4-7 8v45c0 4 3 7 7 7h51c4 0 7-3 7-7v-45c0-4-3-8-7-8zm-36-6a10 10 0 0 1 20 0v6H23v-6zm28 51H16v-30h35v30zm87-125h273a54 54 0 0 0 0-108H138a54 54 0 0 0 0 108zm0-93h273a39 39 0 0 1 0 78H138a39 39 0 0 1 0-78zM8 197h50c4 0 8-3 8-8v-3c0-11-6-21-14-27a25 25 0 1 0-38 0c-8 6-14 16-14 27v3c0 5 3 8 8 8zm25-63a10 10 0 1 1 0 19 10 10 0 0 1 0-19zm0 35c8 0 15 5 17 13H16c1-8 8-13 17-13z"/><path d="M141 180h22a7 7 0 1 0 0-15h-14v-24a7 7 0 1 0-15 0v31c0 4 3 8 7 8zm149 0c4 0 7-4 7-8v-31a7 7 0 1 0-15 0v31c0 4 4 8 8 8zm27 0c4 0 7-4 7-8v-12l17 17a7 7 0 0 0 13-5v-31a7 7 0 1 0-15 0v13l-17-18a7 7 0 0 0-13 5v31c0 4 4 8 8 8zm-117 0a23 23 0 1 0 0-46 23 23 0 0 0 0 46zm0-31a8 8 0 1 1 0 16 8 8 0 0 1 0-16zm56 30v4a7 7 0 1 0 15 0v-15a7 7 0 0 0-12-6 8 8 0 1 1 0-11 8 8 0 1 0 10-11 23 23 0 1 0-13 39z"/></svg>